<svg width="234" height="235" viewBox="0 0 234 235" fill="none" xmlns="http://www.w3.org/2000/svg">
<path d="M58.5512 83.9883C61.2841 93.6899 70.5758 93.28 74.4701 89.0441C74.4701 89.0441 84.9916 112.752 112.935 115.074C140.878 112.752 151.4 89.0441 151.4 89.0441C155.294 93.3483 164.586 93.6899 167.319 83.9883C170.051 74.2867 162.263 71.5539 162.263 71.5539C162.263 71.5539 167.319 67.6596 167.319 61.8523C167.319 56.045 159.53 51.3308 159.53 51.3308C159.53 51.3308 165.337 48.2564 162.263 40.8094C159.188 33.4307 153.313 37.7349 152.561 35.7536C151.81 33.8406 154.474 26.4619 152.561 23.7291C150.648 20.9962 147.505 24.139 142.86 20.5863C133.909 10.0649 112.935 8.56177 112.935 8.56177C112.935 8.56177 91.9603 10.1332 83.0102 20.5863C78.3644 24.0707 75.2217 20.9962 73.3087 23.7291C71.3957 26.4619 74.0602 33.8406 73.3087 35.7536C72.5571 37.6666 66.6815 33.4307 63.607 40.8094C60.4642 48.188 66.3399 51.3308 66.3399 51.3308C66.3399 51.3308 58.5512 55.9767 58.5512 61.8523C58.5512 67.6596 63.607 71.5539 63.607 71.5539C63.607 71.5539 55.8184 74.2867 58.5512 83.9883ZM103.985 31.9276C108.221 31.9276 111.09 33.9089 112.935 35.8902C114.78 33.9089 117.649 31.9276 121.885 31.9276C130.425 31.9276 143.27 45.9334 147.164 64.5851C146.754 69.231 144.431 68.8894 143.679 80.094C142.928 90.7521 129.605 104.28 113.003 105.919C96.4012 104.211 83.0786 90.7521 82.327 80.094C81.5755 68.821 79.1843 69.231 78.8427 64.5851C82.6687 45.8651 95.4447 31.9276 103.985 31.9276Z" fill="#F2CB8D"/>
<path d="M196.902 131.403C191.094 122.453 146.754 106.534 146.754 106.534L128.512 122.043L113.003 146.502C113.003 146.502 98.2458 122.385 94.7614 120.062C91.277 117.739 80.414 108.379 80.414 108.379C80.414 108.379 44.2721 122.726 33.819 129.354C23.2975 135.981 27.6018 157.297 27.6018 157.297H0V179.843H187.268C187.268 179.843 133.226 199.246 12.7761 193.439L13.9375 234.636H211.727L215.212 179.433H227.646V157.297H199.293C199.224 157.434 202.709 140.285 196.902 131.403ZM182.486 156.272L155.294 143.838L151.81 151.626H157.275V159.005H124.618V151.216H142.108L133.363 146.57L147.574 118.217L162.741 126.006L158.437 134.751L186.039 148.142L182.486 156.272Z" fill="#F2CB8D"/>
<path d="M168.685 63.3554C168.685 63.3554 173.741 59.4611 173.741 53.6538C173.741 47.8465 165.952 43.1324 165.952 43.1324C165.952 43.1324 171.759 40.0579 168.685 32.6109C165.611 25.2322 159.735 29.5364 158.983 27.5551C158.232 25.6421 160.896 18.2634 158.983 15.5306C157.07 12.7977 153.928 15.9405 149.282 12.3878C140.332 1.86637 119.357 0.363281 119.357 0.363281C119.357 0.363281 98.3826 1.93469 89.4325 12.3878C84.7866 15.8722 81.6438 12.7977 79.7308 15.5306C77.8178 18.2634 80.4824 25.6421 79.7308 27.5551C78.9793 29.4681 73.1037 25.2322 70.0293 32.6109C66.8865 39.9896 72.7621 43.1324 72.7621 43.1324C72.7621 43.1324 64.9735 47.7782 64.9735 53.6538C64.9735 59.4611 70.0293 63.3554 70.0293 63.3554C70.0293 63.3554 62.2406 66.0882 64.9735 75.7899C67.7063 85.4915 76.998 85.0815 80.8923 80.8456C80.8923 80.8456 91.4137 104.553 119.357 106.876C147.3 104.553 157.822 80.8456 157.822 80.8456C161.716 85.1498 171.008 85.4915 173.741 75.7899C176.405 66.0882 168.685 63.3554 168.685 63.3554ZM150.033 71.8955C149.282 82.5536 135.959 96.0812 119.357 97.7209C102.755 96.0129 89.4325 82.5536 88.681 71.8955C87.9294 60.6226 85.5381 61.0325 85.1965 56.3866C89.0908 37.735 101.935 23.7291 110.475 23.7291C114.711 23.7291 117.581 25.7104 119.425 27.6917C121.27 25.7104 124.14 23.7291 128.376 23.7291C136.916 23.7291 149.76 37.735 153.654 56.3866C153.108 61.0325 150.785 60.6226 150.033 71.8955Z" fill="#CE4B26"/>
<path d="M205.578 149.235C205.578 149.235 209.063 132.155 203.255 123.205C197.448 114.255 153.108 98.3358 153.108 98.3358L134.866 113.845L119.357 138.304C119.357 138.304 104.6 114.186 101.115 111.863C97.631 109.54 86.7679 100.18 86.7679 100.18C86.7679 100.18 50.626 114.528 40.1729 121.155C29.6514 127.782 33.9556 149.098 33.9556 149.098H6.35388V171.644H193.622C193.622 171.644 139.58 191.048 19.1299 185.24L20.2914 226.438H218.081L221.566 171.234H234V149.098H205.578V149.235ZM188.84 148.074L161.648 135.639L158.163 143.428H163.629V150.806H130.972V143.018H148.462L139.717 138.372L153.928 110.019L169.095 117.807L164.791 126.552L192.392 139.943L188.84 148.074Z" fill="#3C3F5D"/>
</svg>
