<svg width="234" height="173" viewBox="0 0 234 173" fill="none" xmlns="http://www.w3.org/2000/svg">
<path d="M226.996 118.159L116.885 65.791L127.987 42.5398C130.779 43.3078 133.642 44.0061 136.575 44.5646L142.021 33.1834C112.625 9.02448 83.1598 5.1842 83.1598 5.1842L77.7136 16.5654C77.7136 16.5654 80.0876 18.7998 84.6261 22.0815L50.3428 94.1393C44.8965 92.673 41.6847 92.2541 41.6847 92.2541L36.2384 103.635C36.2384 103.635 57.8139 124.094 95.0997 131.635L100.546 120.253C98.1719 118.298 95.8677 116.553 93.5635 114.877L104.665 91.6257L214.777 143.993C216.942 145.041 219.525 144.133 220.572 141.899L229.091 123.954C230.068 121.789 229.161 119.206 226.996 118.159Z" fill="#F2CB8D"/>
<path d="M13.0571 149.09V166.546C13.0571 166.546 61.0956 179.254 123.867 166.546V149.09C61.0956 136.383 13.0571 149.09 13.0571 149.09Z" fill="#F2CB8D"/>
<path d="M1.74568 124.582L1.46637 136.802L44.338 131.425L1.74568 124.582Z" fill="#F2CB8D"/>
<path d="M13.057 87.925L0 100.493L43.1509 124.582L13.057 87.925Z" fill="#F2CB8D"/>
<path d="M17.5292 144.781V162.237C17.5292 162.237 65.5678 174.945 128.339 162.237V144.781C65.6376 132.074 17.5292 144.781 17.5292 144.781Z" fill="#CE4B26"/>
<path d="M48.8101 127.116L6.21779 120.204L5.93848 132.423L48.8101 127.116Z" fill="#3C3F5D"/>
<path d="M47.6231 120.204L17.5292 83.6161L4.47217 96.1145L47.6231 120.204Z" fill="#3C3F5D"/>
<path d="M84.6295 70.9781L93.2877 52.7541C94.2652 50.6594 96.7788 49.7517 98.8735 50.7991L231.608 113.92C233.703 114.897 234.61 117.411 233.563 119.505L224.905 137.729C223.927 139.824 221.414 140.732 219.319 139.684L86.5846 76.564C84.5597 75.5166 83.652 73.0728 84.6295 70.9781Z" fill="#3C3F5D"/>
<path d="M87.6319 0.80542L82.1857 12.1866C82.1857 12.1866 84.5597 14.421 89.0983 17.7027L54.8149 89.7605C49.3687 88.2943 46.1568 87.8753 46.1568 87.8753L40.7106 99.2566C40.7106 99.2566 62.286 119.715 99.5718 127.256L105.018 115.875C102.644 113.919 100.34 112.174 98.0357 110.498L132.459 38.161C135.252 38.9291 138.114 39.6273 141.047 40.1859L146.493 28.8046C117.097 4.6457 87.6319 0.80542 87.6319 0.80542Z" fill="#3C3F5D"/>
</svg>
