<svg id="youtube-icon-svg" width="24" height="24" viewBox="0 0 24 24" fill="none" xmlns="http://www.w3.org/2000/svg">
<g clip-path="url(#clip0)">
    <path d="M23.5 6.50689C23.3641 6.02212 23.0994 5.58324 22.734 5.23689C22.3583 4.8799 21.8978 4.62453 21.396 4.49489C19.518 3.99989 11.994 3.99989 11.994 3.99989C8.85734 3.96421 5.72144 4.12117 2.60401 4.46989C2.1022 4.60911 1.64257 4.87018 1.26601 5.22989C0.896007 5.58589 0.628007 6.02489 0.488007 6.50589C0.1517 8.31764 -0.0117011 10.1572 6.83166e-06 11.9999C-0.0119932 13.8409 0.151007 15.6799 0.488007 17.4939C0.625007 17.9729 0.892007 18.4099 1.26301 18.7629C1.63401 19.1159 2.09601 19.3709 2.60401 19.5059C4.50701 19.9999 11.994 19.9999 11.994 19.9999C15.1347 20.0356 18.2746 19.8787 21.396 19.5299C21.8978 19.4003 22.3583 19.1449 22.734 18.7879C23.104 18.4349 23.367 17.9959 23.499 17.5179C23.8441 15.7068 24.0119 13.8665 24 12.0229C24.026 10.1715 23.8584 8.32246 23.5 6.50589V6.50689ZM9.60201 15.4239V8.57689L15.862 12.0009L9.60201 15.4239Z" />
</g>
<defs>
<clipPath id="clip0">
<rect width="24" height="24" fill="white" transform="translate(0 -0.00012207)"/>
</clipPath>
</defs>
</svg>
